HIERARCHY
ROOT Hips
{
	OFFSET -1.602300 6.242603 43.997101
	CHANNELS 6 Xposition Yposition Zposition Zrotation Xrotation Yrotation
	JOINT Chest
	{
		OFFSET -0.204900 1.598101 7.917301
		CHANNELS 6 Xposition Yposition Zposition Zrotation Xrotation Yrotation
		JOINT Chest2
		{
			OFFSET 0.000000 0.000000 3.404099
			CHANNELS 6 Xposition Yposition Zposition Zrotation Xrotation Yrotation
			JOINT Neck
			{
				OFFSET 0.000000 0.000000 7.928600
				CHANNELS 6 Xposition Yposition Zposition Zrotation Xrotation Yrotation
				JOINT Head
				{
					OFFSET 0.000000 0.000000 2.173897
					CHANNELS 6 Xposition Yposition Zposition Zrotation Xrotation Yrotation
					End Site
					{
						OFFSET 0.000000 0.000001 10.404503
					}
				}
			}
			JOINT LeftCollar
			{
				OFFSET 2.833800 -1.396299 4.843300
				CHANNELS 6 Xposition Yposition Zposition Zrotation Xrotation Yrotation
				JOINT LeftShoulder
				{
					OFFSET 4.363600 0.000000 0.000000
					CHANNELS 6 Xposition Yposition Zposition Zrotation Xrotation Yrotation
					JOINT LeftElbow
					{
						OFFSET 0.000000 -0.000001 -10.306900
						CHANNELS 6 Xposition Yposition Zposition Zrotation Xrotation Yrotation
						JOINT LeftWrist
						{
							OFFSET 0.000000 -0.000001 -12.404900
							CHANNELS 6 Xposition Yposition Zposition Zrotation Xrotation Yrotation
							End Site
							{
								OFFSET 0.000000 0.000000 -2.173901
							}
						}
					}
				}
			}
			JOINT RightCollar
			{
				OFFSET -2.354800 -1.897200 5.063099
				CHANNELS 6 Xposition Yposition Zposition Zrotation Xrotation Yrotation
				JOINT RightShoulder
				{
					OFFSET -4.375800 0.000000 0.000000
					CHANNELS 6 Xposition Yposition Zposition Zrotation Xrotation Yrotation
					JOINT RightElbow
					{
						OFFSET 0.000000 -0.000001 -10.005001
						CHANNELS 6 Xposition Yposition Zposition Zrotation Xrotation Yrotation
						JOINT RightWrist
						{
							OFFSET 0.000000 -0.000001 -13.174900
							CHANNELS 6 Xposition Yposition Zposition Zrotation Xrotation Yrotation
							End Site
							{
								OFFSET 0.000000 0.000000 -2.173901
							}
						}
					}
				}
			}
		}
	}
	JOINT LeftHip
	{
		OFFSET 2.240600 0.386800 -2.614101
		CHANNELS 6 Xposition Yposition Zposition Zrotation Xrotation Yrotation
		JOINT LeftKnee
		{
			OFFSET 0.000000 -0.000001 -18.592899
			CHANNELS 6 Xposition Yposition Zposition Zrotation Xrotation Yrotation
			JOINT LeftAnkle
			{
				OFFSET 0.000000 -0.000001 -18.765800
				CHANNELS 6 Xposition Yposition Zposition Zrotation Xrotation Yrotation
				End Site
				{
					OFFSET 0.000000 -8.655000 0.000000
				}
			}
		}
	}
	JOINT RightHip
	{
		OFFSET -2.014900 -0.220900 -2.615898
		CHANNELS 6 Xposition Yposition Zposition Zrotation Xrotation Yrotation
		JOINT RightKnee
		{
			OFFSET 0.000000 -0.000001 -18.633900
			CHANNELS 6 Xposition Yposition Zposition Zrotation Xrotation Yrotation
			JOINT RightAnkle
			{
				OFFSET 0.000000 -0.000001 -18.285101
				CHANNELS 6 Xposition Yposition Zposition Zrotation Xrotation Yrotation
				End Site
				{
					OFFSET 0.000000 -7.524500 0.000000
				}
			}
		}
	}
}
MOTION
Frames: 8
Frame Time: 0.041667
-6.206900 25.881702 8.851315 5.541219 -0.684831 4.830900 -0.204901 1.598103 7.917306 -5.973196 1.166709 -0.103514 0.000000 0.000006 3.404099 -4.783368 -17.397743 -2.540276 0.000000 -0.000006 7.928600 7.677203 22.612989 -6.785385 0.000001 -0.000000 2.173906 2.385061 0.360426 2.628154 2.833797 -1.396305 4.843299 60.435693 -24.240551 -17.409379 4.363595 0.000008 -0.000012 -84.047930 -23.622090 -114.554526 -0.000000 0.000004 -10.306893 583.710152 -158.984947 546.233068 -0.000000 -0.000003 -12.404886 -403.224917 357.745119 -353.952260 -2.354801 -1.897205 5.063101 7.036293 14.397335 -6.165041 -4.375798 0.000001 -0.000018 49.198204 -14.404796 164.789105 -0.000002 0.000003 -10.004995 -604.690963 -171.083357 -551.829889 -0.000004 -0.000004 -13.174897 97.991221 -11.697430 349.902340 2.240595 0.386805 -2.614107 137.706832 -30.451029 104.593501 0.000002 0.000001 -18.592897 -118.321908 32.373587 132.531570 0.000000 0.000001 -18.765800 10.734158 36.265579 -5.834846 -2.014898 -0.220895 -2.615902 -114.504338 -22.980614 -91.715548 -0.000001 0.000004 -18.633883 175.160065 30.045623 -179.357639 -0.000006 -0.000005 -18.285088 -8.570751 34.782212 -214.088072
-6.207700 25.873205 8.852112 5.524719 -0.753810 4.777568 -0.204900 1.598098 7.917309 -5.951469 1.228334 -0.083955 0.000001 0.000002 3.404103 -4.753550 -17.478113 -2.540679 0.000001 -0.000006 7.928598 7.620872 22.554077 -6.672514 0.000000 -0.000002 2.173907 2.410524 0.282020 2.584916 2.833796 -1.396304 4.843298 59.341694 -23.840178 -18.025043 4.363600 0.000010 -0.000005 -83.132889 -23.863095 -114.500936 -0.000000 0.000000 -10.306893 583.393122 -158.985767 546.177771 0.000002 -0.000000 -12.404897 -403.447581 357.782466 -354.210168 -2.354800 -1.897203 5.063104 7.071723 14.488701 -6.077593 -4.375798 0.000004 -0.000013 49.219542 -14.677945 164.725803 0.000003 0.000003 -10.004991 -605.005698 -170.897658 -552.161017 -0.000003 -0.000006 -13.174891 98.565558 -11.615058 349.802155 2.240598 0.386797 -2.614098 137.671301 -30.344263 104.414782 -0.000001 0.000000 -18.592894 -118.487253 32.373942 132.585884 0.000001 0.000001 -18.765799 10.619775 36.290431 -5.814666 -2.014896 -0.220901 -2.615895 -114.429629 -23.126908 -91.679587 -0.000001 0.000003 -18.633884 175.293048 30.060906 -179.466881 -0.000006 -0.000005 -18.285088 -8.448317 34.817354 -214.235140
-6.208599 25.865002 8.852306 5.524432 -0.818448 4.725950 -0.204900 1.598099 7.917310 -5.943084 1.140375 -0.073794 0.000001 0.000005 3.404104 -4.698961 -17.409312 -2.524887 -0.000002 -0.000001 7.928602 7.563931 22.496912 -6.579836 0.000000 0.000001 2.173905 2.407162 0.159945 2.556638 2.833797 -1.396297 4.843297 58.098634 -23.367822 -18.728053 4.363595 0.000011 -0.000009 -82.068766 -24.168700 -114.437914 0.000003 0.000001 -10.306896 583.075983 -158.986436 546.104497 0.000007 -0.000004 -12.404894 -403.702156 357.792384 -354.451192 -2.354802 -1.897197 5.063100 7.091037 14.578414 -5.938194 -4.375799 0.000003 -0.000018 49.340802 -15.014322 164.688620 0.000001 0.000000 -10.004987 -605.303058 -170.746916 -552.504930 -0.000001 -0.000005 -13.174893 99.258577 -11.473964 349.709292 2.240595 0.386805 -2.614101 137.628995 -30.224113 104.237566 -0.000000 0.000001 -18.592894 -118.667447 32.366074 132.646454 -0.000001 0.000001 -18.765797 10.479582 36.292282 -5.740906 -2.014900 -0.220897 -2.615898 -114.369865 -23.264352 -91.624679 0.000001 0.000002 -18.633884 175.405282 30.074727 -179.565332 -0.000006 -0.000006 -18.285084 -8.356544 34.856812 -214.373328
-6.209899 25.857704 8.852299 5.547683 -0.876774 4.678191 -0.204899 1.598099 7.917308 -5.959069 1.085288 -0.073399 -0.000000 0.000005 3.404103 -4.623076 -17.375895 -2.508858 0.000000 -0.000002 7.928597 7.502245 22.450448 -6.468701 0.000001 0.000005 2.173903 2.399470 0.011256 2.547861 2.833796 -1.396301 4.843303 56.816901 -22.834789 -19.422329 4.363600 0.000009 -0.000013 -80.958157 -24.478017 -114.386052 -0.000001 0.000000 -10.306897 582.738954 -158.982980 546.009420 0.000003 -0.000000 -12.404891 -403.927771 357.783532 -354.669020 -2.354800 -1.897199 5.063102 7.139022 14.676364 -5.778816 -4.375799 -0.000001 -0.000012 49.365418 -15.391275 164.650289 -0.000000 0.000001 -10.004992 -605.956133 -170.681387 -552.909277 -0.000006 -0.000006 -13.174900 100.326750 -11.290425 349.715822 2.240597 0.386803 -2.614100 137.573438 -30.097410 104.064694 -0.000000 0.000000 -18.592892 -118.843693 32.336318 132.703759 -0.000001 0.000001 -18.765799 10.341484 36.268991 -5.648809 -2.014896 -0.220896 -2.615898 -114.330099 -23.397703 -91.549772 -0.000000 0.000003 -18.633883 175.486766 30.090357 -179.650559 -0.000007 -0.000005 -18.285086 -8.297091 34.900303 -214.501012
-6.212399 25.851606 8.852512 5.588793 -0.932430 4.631253 -0.204900 1.598101 7.917309 -5.993862 1.033528 -0.065815 0.000001 -0.000000 3.404104 -4.540151 -17.338085 -2.491644 -0.000001 -0.000000 7.928601 7.415656 22.406627 -6.418590 -0.000000 0.000004 2.173906 2.410595 -0.127400 2.588629 2.833794 -1.396298 4.843302 55.662521 -22.318902 -20.010566 4.363595 0.000009 -0.000007 -79.947036 -24.741276 -114.342243 0.000002 0.000001 -10.306901 582.445092 -158.979920 545.922540 0.000000 -0.000002 -12.404895 -404.177756 357.769079 -354.895673 -2.354801 -1.897199 5.063102 7.196585 14.768737 -5.646973 -4.375799 0.000001 -0.000014 49.390013 -15.747747 164.641915 -0.000002 0.000005 -10.004989 -606.755101 -170.698763 -553.295484 -0.000005 -0.000005 -13.174890 101.626303 -11.106702 349.817509 2.240597 0.386805 -2.614102 137.508865 -29.971669 103.893079 0.000000 0.000001 -18.592894 -118.981103 32.260858 132.738812 -0.000001 -0.000001 -18.765799 10.248481 36.222529 -5.553091 -2.014898 -0.220895 -2.615900 -114.302307 -23.534450 -91.454525 -0.000000 0.000005 -18.633883 175.536668 30.109496 -179.724079 -0.000006 -0.000004 -18.285082 -8.267503 34.947599 -214.619352
-6.216300 25.847105 8.853012 5.644770 -0.982977 4.585168 -0.204900 1.598097 7.917310 -6.044537 0.985620 -0.051583 0.000001 0.000003 3.404101 -4.472114 -17.294230 -2.477455 -0.000000 -0.000004 7.928602 7.393289 22.355870 -6.429646 0.000000 -0.000005 2.173908 2.407974 -0.257765 2.638907 2.833795 -1.396302 4.843303 54.658814 -21.874948 -20.487699 4.363599 0.000007 -0.000003 -79.035739 -24.957650 -114.265930 0.000004 0.000005 -10.306901 582.153415 -158.983431 545.838447 0.000002 -0.000002 -12.404895 -404.385120 357.753479 -355.176421 -2.354800 -1.897202 5.063101 7.239751 14.841796 -5.561216 -4.375797 0.000002 -0.000015 49.452550 -16.146318 164.749067 0.000001 0.000001 -10.004988 -607.480740 -170.801120 -553.742779 0.000001 -0.000004 -13.174891 102.906055 -10.947215 350.060664 2.240598 0.386801 -2.614098 137.438897 -29.852602 103.725821 -0.000000 0.000001 -18.592894 -119.045457 32.115689 132.734645 -0.000001 -0.000000 -18.765797 10.244008 36.156566 -5.475197 -2.014896 -0.220895 -2.615895 -114.284740 -23.672888 -91.346117 0.000000 0.000002 -18.633883 175.556543 30.133456 -179.785578 -0.000005 -0.000005 -18.285086 -8.263861 34.997053 -214.726804
-6.221700 25.844601 8.853806 5.705067 -1.051141 4.525643 -0.204900 1.598101 7.917305 -6.097724 0.950362 -0.027089 0.000001 0.000006 3.404105 -4.394313 -17.241243 -2.461941 0.000000 -0.000006 7.928598 7.426945 22.312042 -6.431651 0.000000 0.000001 2.173903 2.346344 -0.373778 2.642126 2.833796 -1.396305 4.843303 53.568668 -21.369616 -20.961154 4.363597 0.000009 -0.000010 -78.007700 -25.169191 -114.186857 0.000006 -0.000001 -10.306903 581.977142 -158.979169 545.816427 0.000001 -0.000000 -12.404900 -404.647509 357.772467 -355.508150 -2.354800 -1.897207 5.063105 7.247576 14.904765 -5.467243 -4.375794 0.000001 -0.000013 49.442578 -16.353375 164.747810 0.000000 0.000003 -10.004989 -608.308723 -170.943079 -553.963531 0.000001 -0.000006 -13.174901 104.183894 -10.853526 350.410998 2.240597 0.386802 -2.614101 137.359025 -29.752929 103.537376 0.000000 0.000003 -18.592892 -119.040198 31.920838 132.695877 -0.000000 0.000000 -18.765797 10.328725 36.086625 -5.459264 -2.014898 -0.220897 -2.615900 -114.256839 -23.845140 -91.226411 -0.000000 0.000003 -18.633890 175.575832 30.163977 -179.857582 -0.000006 -0.000005 -18.285086 -8.254565 35.049993 -214.844857
-6.228600 25.844204 8.854507 5.764097 -1.148753 4.458078 -0.204900 1.598104 7.917311 -6.148848 0.972880 0.025359 0.000000 0.000005 3.404100 -4.346083 -17.211675 -2.454357 -0.000000 0.000001 7.928603 7.457676 22.253559 -6.446272 -0.000000 -0.000000 2.173906 2.299621 -0.476758 2.653432 2.833796 -1.396299 4.843307 52.835075 -21.018539 -21.161687 4.363594 0.000008 -0.000008 -77.311055 -25.256563 -114.115447 0.000004 0.000001 -10.306901 581.884142 -159.014986 545.843037 0.000003 -0.000002 -12.404903 -404.955140 357.776155 -355.931867 -2.354801 -1.897198 5.063106 7.273017 14.959468 -5.431354 -4.375796 -0.000000 -0.000021 49.372685 -16.490069 164.743616 0.000000 0.000001 -10.004999 -609.133428 -171.127876 -554.106364 -0.000003 -0.000008 -13.174895 105.400740 -10.789627 350.898564 2.240596 0.386806 -2.614104 137.270478 -29.705749 103.329431 -0.000000 0.000002 -18.592890 -118.980147 31.721659 132.642888 -0.000000 -0.000000 -18.765797 10.468781 36.026366 -5.531660 -2.014895 -0.220892 -2.615898 -114.211855 -24.042910 -91.087164 0.000000 0.000003 -18.633884 175.580736 30.200071 -179.927550 -0.000006 -0.000006 -18.285084 -8.247978 35.099516 -214.953949
